<svg xmlns="http://www.w3.org/2000/svg" width="40" height="32" viewBox="0 0 40 32">
    <g fill="#FFF" fill-rule="evenodd">
        <path d="M6.464 18.366c0 2.3 1.263 3.883 3.789 4.751l1.092.087c2.04 0 3.51-1.157 4.409-3.471l.171-1.15v-.586c0-2.082-1.156-3.565-3.467-4.447l-1.092-.152h-.128c-2.255 0-3.789 1.236-4.602 3.71l-.172 1.258zm4.517-11.302h.513c4.081 0 7.328 2.053 9.74 6.16.827 1.664 1.24 3.342 1.24 5.034 0 4.251-2.047 7.614-6.142 10.087-1.627.796-3.24 1.193-4.838 1.193h-.513c-4.253 0-7.585-2.205-9.996-6.616C.328 21.302 0 19.776 0 18.344c0-4.339 2.048-7.701 6.143-10.088 1.541-.795 3.154-1.192 4.838-1.192z"/>
        <path d="M23.16 18.366c0 2.3 1.263 3.883 3.789 4.751l1.091.087c2.04 0 3.51-1.157 4.41-3.471l.17-1.15v-.586c0-2.082-1.155-3.565-3.466-4.447l-1.092-.152h-.129c-2.255 0-3.788 1.236-4.602 3.71l-.171 1.258zm4.517-11.302h.513c4.081 0 7.328 2.053 9.74 6.16.827 1.664 1.24 3.342 1.24 5.034 0 4.251-2.047 7.614-6.142 10.087-1.627.796-3.24 1.193-4.838 1.193h-.513c-4.253 0-7.585-2.205-9.996-6.616-.657-1.62-.985-3.146-.985-4.578 0-4.339 2.047-7.701 6.143-10.088 1.541-.795 3.154-1.192 4.838-1.192z"/>
        <path d="M34.025 5.084c-4.375.275-7.31-.343-10.246.79-2.935 1.134-3.873 4.707-3.873 4.707s-.937-3.573-3.873-4.707c-2.935-1.133-5.87-.515-10.246-.79C1.412 4.81 0 0 0 0s.01 2.052.187 4.08C.498 7.617 3.49 9.07 4.874 9.24c3.323.412 5.08.32 9.276.48 3.797.146 5.756 6.975 5.756 6.975s1.96-6.829 5.757-6.974c4.197-.16 5.953-.069 9.276-.481 1.385-.172 4.375-1.623 4.686-5.162.179-2.027.188-4.079.188-4.079S38.4 4.81 34.025 5.084M9.632 20.053V16.55c0-.357.359-.596.68-.454l3.524 1.752a.499.499 0 0 1 0 .907l-3.524 1.753a.486.486 0 0 1-.68-.454M21.342 31.924h-3.4c-.346 0-.578-.392-.44-.741l1.7-3.84a.464.464 0 0 1 .88 0l1.7 3.84c.138.35-.094.74-.44.74M26.328 20.053V16.55c0-.357.359-.596.68-.454l3.524 1.752a.499.499 0 0 1 0 .907l-3.525 1.753a.486.486 0 0 1-.68-.454"/>
    </g>
</svg>
